# Blender v2.79 (sub 0) OBJ File: 'floor.blend'
# www.blender.org
v 0.500000 0.000000 -0.500000
v 0.500000 0.000000 0.500000
v -0.500000 0.000000 0.500000
v -0.500000 0.000000 -0.500000
v 0.500000 0.100000 -0.500000
v 0.500000 0.100000 0.500000
v -0.500000 0.100000 0.500000
v -0.500000 0.100000 -0.500000
v 0.500000 0.100000 0.000000
v 0.000000 0.100000 -0.500000
v -0.000000 0.100000 0.500000
v -0.500000 0.100000 -0.000000
v -0.000000 0.100000 0.000000
v 0.500000 0.100000 0.250000
v -0.250000 0.100000 -0.500000
v -0.250000 0.100000 0.500000
v -0.500000 0.100000 -0.250000
v 0.500000 0.100000 -0.250000
v 0.250000 0.100000 -0.500000
v 0.250000 0.100000 0.500000
v -0.500000 0.100000 0.250000
v -0.000000 0.100000 0.250000
v 0.000000 0.100000 -0.250000
v 0.250000 0.100000 0.000000
v -0.250000 0.100000 0.000000
v -0.250000 0.100000 -0.250000
v 0.250000 0.100000 -0.250000
v 0.250000 0.100000 0.250000
v -0.250000 0.100000 0.250000
v 0.500000 0.100000 0.375000
v -0.375000 0.100000 -0.500000
v -0.375000 0.100000 0.500000
v -0.500000 0.100000 -0.375000
v 0.500000 0.100000 -0.125000
v 0.125000 0.100000 -0.500000
v 0.125000 0.100000 0.500000
v -0.500000 0.100000 0.125000
v -0.000000 0.100000 0.375000
v -0.000000 0.100000 -0.125000
v 0.375000 0.100000 0.000000
v -0.125000 0.100000 0.000000
v 0.500000 0.100000 0.125000
v -0.125000 0.100000 -0.500000
v -0.125000 0.100000 0.500000
v -0.500000 0.100000 -0.125000
v 0.500000 0.100000 -0.375000
v 0.375000 0.100000 -0.500000
v 0.375000 0.100000 0.500000
v -0.500000 0.100000 0.375000
v -0.000000 0.100000 0.125000
v 0.000000 0.100000 -0.375000
v 0.125000 0.100000 0.000000
v -0.375000 0.100000 -0.000000
v -0.250000 0.100000 -0.125000
v -0.250000 0.100000 -0.375000
v -0.125000 0.100000 -0.250000
v -0.375000 0.100000 -0.250000
v 0.250000 0.100000 -0.125000
v 0.250000 0.100000 -0.375000
v 0.375000 0.100000 -0.250000
v 0.125000 0.100000 -0.250000
v 0.250000 0.100000 0.375000
v 0.250000 0.100000 0.125000
v 0.375000 0.100000 0.250000
v 0.125000 0.100000 0.250000
v -0.250000 0.100000 0.375000
v -0.250000 0.100000 0.125000
v -0.125000 0.100000 0.250000
v -0.375000 0.100000 0.250000
v -0.375000 0.100000 0.125000
v -0.125000 0.100000 0.125000
v -0.125000 0.100000 0.375000
v 0.125000 0.100000 0.125000
v 0.375000 0.100000 0.125000
v 0.375000 0.100000 0.375000
v 0.125000 0.100000 -0.375000
v 0.375000 0.100000 -0.375000
v 0.375000 0.100000 -0.125000
v -0.375000 0.100000 -0.375000
v -0.125000 0.100000 -0.375000
v -0.125000 0.100000 -0.125000
v -0.375000 0.100000 -0.125000
v 0.125000 0.100000 -0.125000
v 0.125000 0.100000 0.375000
v -0.375000 0.100000 0.375000
v 0.375000 0.135097 -0.500000
v 0.250000 0.135097 -0.500000
v 0.250000 0.135097 -0.375000
v 0.375000 0.135097 -0.375000
v 0.000000 0.158429 -0.250000
v -0.000000 0.158429 -0.125000
v 0.125000 0.158429 -0.250000
v 0.125000 0.158429 -0.125000
v 0.250000 0.127505 0.125000
v 0.250000 0.127505 0.250000
v 0.125000 0.127505 0.250000
v 0.125000 0.127505 0.125000
v -0.250000 0.140353 -0.125000
v -0.250000 0.140353 0.000000
v -0.125000 0.140353 0.000000
v -0.125000 0.140353 -0.125000
v -0.375000 0.132390 0.250000
v -0.250000 0.132390 0.250000
v -0.250000 0.132390 0.375000
v -0.375000 0.132390 0.375000
v 0.250000 0.119950 -0.125000
v 0.250000 0.119950 0.000000
v 0.375000 0.119950 0.000000
v 0.375000 0.119950 -0.125000
v -0.250000 0.111593 -0.500000
v -0.375000 0.111593 -0.500000
v -0.250000 0.111593 -0.375000
v -0.375000 0.111593 -0.375000
v -0.000000 0.104794 0.250000
v -0.000000 0.104794 0.375000
v 0.125000 0.104794 0.250000
v 0.125000 0.104794 0.375000
v 0.375000 0.138174 0.500000
v 0.250000 0.138174 0.500000
v 0.250000 0.138174 0.375000
v 0.375000 0.138174 0.375000
v 0.250000 0.077340 0.125000
v 0.250000 0.077340 0.250000
v 0.375000 0.077340 0.250000
v 0.375000 0.077340 0.125000
v -0.000000 0.091063 0.125000
v -0.000000 0.091063 0.250000
v -0.125000 0.091063 0.250000
v -0.125000 0.091063 0.125000
v -0.000000 0.061710 -0.125000
v -0.000000 0.061710 0.000000
v -0.125000 0.061710 0.000000
v -0.125000 0.061710 -0.125000
v -0.250000 0.074261 -0.375000
v -0.250000 0.074261 -0.250000
v -0.125000 0.074261 -0.250000
v -0.125000 0.074261 -0.375000
v 0.250000 0.072133 -0.375000
v 0.250000 0.072133 -0.250000
v 0.375000 0.072133 -0.250000
v 0.375000 0.072133 -0.375000
v -0.500000 0.070209 0.125000
v -0.500000 0.070209 -0.000000
v -0.375000 0.070209 -0.000000
v -0.375000 0.070209 0.125000
v 0.375000 0.133651 0.000000
v 0.500000 0.133651 0.000000
v 0.500000 0.133651 0.125000
v 0.375000 0.133651 0.125000
v 0.500000 0.112531 -0.375000
v 0.500000 0.112531 -0.250000
v 0.375000 0.112531 -0.250000
v 0.375000 0.112531 -0.375000
v 0.125000 0.079163 -0.500000
v 0.000000 0.079163 -0.500000
v 0.000000 0.079163 -0.375000
v 0.125000 0.079163 -0.375000
v -0.125000 0.117252 0.500000
v -0.250000 0.117252 0.500000
v -0.250000 0.117252 0.375000
v -0.125000 0.117252 0.375000
v 0.125000 0.086672 0.500000
v -0.000000 0.086672 0.500000
v -0.000000 0.086672 0.375000
v 0.125000 0.086672 0.375000
v -0.125000 0.112102 0.000000
v -0.000000 0.112102 0.000000
v -0.000000 0.112102 0.125000
v -0.125000 0.112102 0.125000
v -0.375000 0.077409 -0.250000
v -0.250000 0.077409 -0.250000
v -0.250000 0.077409 -0.125000
v -0.375000 0.077409 -0.125000
v -0.500000 0.132661 -0.250000
v -0.500000 0.132661 -0.375000
v -0.375000 0.132661 -0.250000
v -0.375000 0.132661 -0.375000
v 0.375000 0.120082 0.250000
v 0.500000 0.120082 0.250000
v 0.500000 0.120082 0.375000
v 0.375000 0.120082 0.375000
vn 0.0000 -1.0000 0.0000
vn 0.0000 1.0000 0.0000
vn 1.0000 0.0000 0.0000
vn -0.0000 0.0000 1.0000
vn -1.0000 -0.0000 0.0000
vn 0.0000 0.0000 -1.0000
s off
f 2//1 4//1 1//1
f 85//2 7//2 32//2
f 14//3 30//3 2//3
f 16//4 32//4 3//4
f 17//5 33//5 4//5
f 35//6 19//6 1//6
f 38//4 165//4 84//4
f 39//2 52//2 83//2
f 45//2 53//2 82//2
f 25//5 98//5 54//5
f 55//4 137//4 80//4
f 33//6 177//6 79//6
f 78//3 108//3 40//3
f 77//5 140//5 60//5
f 51//2 61//2 76//2
f 48//4 119//4 20//4
f 28//3 122//3 63//3
f 50//2 65//2 73//2
f 72//3 158//3 44//3
f 67//2 68//2 71//2
f 70//2 21//2 69//2
f 67//2 69//2 29//2
f 53//2 67//2 25//2
f 37//3 143//3 12//3
f 50//5 127//5 22//5
f 41//6 167//6 13//6
f 25//2 71//2 41//2
f 38//2 44//2 11//2
f 22//2 72//2 38//2
f 29//2 72//2 68//2
f 28//4 96//4 65//4
f 24//2 73//2 63//2
f 13//2 73//2 52//2
f 74//2 14//2 42//2
f 74//5 146//5 40//5
f 24//2 74//2 40//2
f 75//2 6//2 30//2
f 75//5 178//5 64//5
f 28//2 75//2 64//2
f 76//2 27//2 59//2
f 35//2 59//2 19//2
f 10//4 154//4 35//4
f 77//6 150//6 46//6
f 47//2 46//2 5//2
f 59//5 87//5 19//5
f 78//2 9//2 34//2
f 60//2 34//2 18//2
f 27//2 78//2 60//2
f 55//2 57//2 26//2
f 79//5 111//5 31//5
f 8//2 79//2 31//2
f 51//2 56//2 23//2
f 43//2 51//2 10//2
f 15//2 80//2 43//2
f 13//6 132//6 41//6
f 56//2 39//2 23//2
f 26//2 81//2 56//2
f 54//2 53//2 25//2
f 26//5 172//5 54//5
f 17//2 82//2 57//2
f 83//2 24//2 58//2
f 61//2 58//2 27//2
f 39//5 90//5 23//5
f 84//2 20//2 62//2
f 28//2 84//2 62//2
f 22//6 116//6 65//6
f 66//2 32//2 16//2
f 85//5 102//5 69//5
f 69//2 49//2 85//2
f 87//2 89//2 86//2
f 77//4 88//4 59//4
f 47//3 89//3 77//3
f 19//6 86//6 47//6
f 90//2 93//2 92//2
f 23//6 92//6 61//6
f 83//4 91//4 39//4
f 61//3 93//3 83//3
f 97//2 95//2 94//2
f 63//3 95//3 28//3
f 73//6 94//6 63//6
f 65//5 97//5 73//5
f 101//2 99//2 100//2
f 41//4 99//4 25//4
f 81//3 100//3 41//3
f 54//6 101//6 81//6
f 102//2 104//2 103//2
f 29//3 104//3 66//3
f 66//4 105//4 85//4
f 69//6 103//6 29//6
f 106//2 108//2 109//2
f 58//6 109//6 78//6
f 24//5 106//5 58//5
f 40//4 107//4 24//4
f 110//2 113//2 112//2
f 15//3 112//3 55//3
f 31//6 110//6 15//6
f 55//4 113//4 79//4
f 116//2 115//2 117//2
f 84//4 115//4 38//4
f 65//3 117//3 84//3
f 38//5 114//5 22//5
f 120//2 118//2 121//2
f 75//3 118//3 48//3
f 20//5 120//5 62//5
f 62//6 121//6 75//6
f 122//2 124//2 125//2
f 63//4 125//4 74//4
f 64//6 123//6 28//6
f 74//5 124//5 64//5
f 129//2 127//2 126//2
f 71//4 126//4 50//4
f 68//3 129//3 71//3
f 22//6 128//6 68//6
f 133//2 131//2 130//2
f 39//5 131//5 13//5
f 81//4 130//4 39//4
f 41//3 133//3 81//3
f 134//2 136//2 137//2
f 56//6 135//6 26//6
f 26//3 134//3 55//3
f 80//5 136//5 56//5
f 138//2 140//2 141//2
f 27//3 138//3 59//3
f 59//4 141//4 77//4
f 60//6 139//6 27//6
f 143//2 145//2 144//2
f 12//4 144//4 53//4
f 70//6 142//6 37//6
f 53//5 145//5 70//5
f 146//2 148//2 147//2
f 40//6 147//6 9//6
f 42//4 149//4 74//4
f 9//3 148//3 42//3
f 153//2 151//2 150//2
f 60//5 153//5 77//5
f 46//3 151//3 18//3
f 18//4 152//4 60//4
f 155//2 157//2 154//2
f 76//6 156//6 51//6
f 51//3 155//3 10//3
f 35//5 157//5 76//5
f 160//2 158//2 161//2
f 44//4 159//4 16//4
f 16//5 160//5 66//5
f 66//6 161//6 72//6
f 165//2 163//2 162//2
f 11//3 164//3 38//3
f 36//6 163//6 11//6
f 84//5 162//5 36//5
f 166//2 168//2 167//2
f 50//4 169//4 71//4
f 13//3 168//3 50//3
f 71//5 166//5 41//5
f 170//2 172//2 171//2
f 54//6 173//6 82//6
f 57//4 171//4 26//4
f 82//3 170//3 57//3
f 177//2 174//2 176//2
f 57//4 174//4 17//4
f 17//5 175//5 33//5
f 79//3 176//3 57//3
f 178//2 180//2 179//2
f 14//3 180//3 30//3
f 30//4 181//4 75//4
f 64//6 179//6 14//6
f 2//1 3//1 4//1
f 85//2 49//2 7//2
f 2//3 1//3 9//3
f 1//3 5//3 46//3
f 46//3 18//3 1//3
f 18//3 34//3 1//3
f 1//3 34//3 9//3
f 30//3 6//3 2//3
f 9//3 42//3 2//3
f 42//3 14//3 2//3
f 3//4 2//4 11//4
f 2//4 6//4 48//4
f 48//4 20//4 2//4
f 20//4 36//4 2//4
f 2//4 36//4 11//4
f 32//4 7//4 3//4
f 11//4 44//4 3//4
f 44//4 16//4 3//4
f 4//5 3//5 12//5
f 3//5 7//5 49//5
f 49//5 21//5 3//5
f 21//5 37//5 3//5
f 3//5 37//5 12//5
f 33//5 8//5 4//5
f 12//5 45//5 4//5
f 45//5 17//5 4//5
f 47//6 5//6 1//6
f 1//6 4//6 10//6
f 4//6 8//6 31//6
f 31//6 15//6 4//6
f 15//6 43//6 4//6
f 4//6 43//6 10//6
f 19//6 47//6 1//6
f 10//6 35//6 1//6
f 38//4 164//4 165//4
f 39//2 13//2 52//2
f 45//2 12//2 53//2
f 25//5 99//5 98//5
f 55//4 134//4 137//4
f 33//6 175//6 177//6
f 78//3 109//3 108//3
f 77//5 141//5 140//5
f 51//2 23//2 61//2
f 48//4 118//4 119//4
f 28//3 123//3 122//3
f 50//2 22//2 65//2
f 72//3 161//3 158//3
f 67//2 29//2 68//2
f 70//2 37//2 21//2
f 67//2 70//2 69//2
f 53//2 70//2 67//2
f 37//3 142//3 143//3
f 50//5 126//5 127//5
f 41//6 166//6 167//6
f 25//2 67//2 71//2
f 38//2 72//2 44//2
f 22//2 68//2 72//2
f 29//2 66//2 72//2
f 28//4 95//4 96//4
f 24//2 52//2 73//2
f 13//2 50//2 73//2
f 74//2 64//2 14//2
f 74//5 149//5 146//5
f 24//2 63//2 74//2
f 75//2 48//2 6//2
f 75//5 181//5 178//5
f 28//2 62//2 75//2
f 76//2 61//2 27//2
f 35//2 76//2 59//2
f 10//4 155//4 154//4
f 77//6 153//6 150//6
f 47//2 77//2 46//2
f 59//5 88//5 87//5
f 78//2 40//2 9//2
f 60//2 78//2 34//2
f 27//2 58//2 78//2
f 55//2 79//2 57//2
f 79//5 113//5 111//5
f 8//2 33//2 79//2
f 51//2 80//2 56//2
f 43//2 80//2 51//2
f 15//2 55//2 80//2
f 13//6 131//6 132//6
f 56//2 81//2 39//2
f 26//2 54//2 81//2
f 54//2 82//2 53//2
f 26//5 171//5 172//5
f 17//2 45//2 82//2
f 83//2 52//2 24//2
f 61//2 83//2 58//2
f 39//5 91//5 90//5
f 84//2 36//2 20//2
f 28//2 65//2 84//2
f 22//6 114//6 116//6
f 66//2 85//2 32//2
f 85//5 105//5 102//5
f 69//2 21//2 49//2
f 87//2 88//2 89//2
f 77//4 89//4 88//4
f 47//3 86//3 89//3
f 19//6 87//6 86//6
f 90//2 91//2 93//2
f 23//6 90//6 92//6
f 83//4 93//4 91//4
f 61//3 92//3 93//3
f 97//2 96//2 95//2
f 63//3 94//3 95//3
f 73//6 97//6 94//6
f 65//5 96//5 97//5
f 101//2 98//2 99//2
f 41//4 100//4 99//4
f 81//3 101//3 100//3
f 54//6 98//6 101//6
f 102//2 105//2 104//2
f 29//3 103//3 104//3
f 66//4 104//4 105//4
f 69//6 102//6 103//6
f 106//2 107//2 108//2
f 58//6 106//6 109//6
f 24//5 107//5 106//5
f 40//4 108//4 107//4
f 110//2 111//2 113//2
f 15//3 110//3 112//3
f 31//6 111//6 110//6
f 55//4 112//4 113//4
f 116//2 114//2 115//2
f 84//4 117//4 115//4
f 65//3 116//3 117//3
f 38//5 115//5 114//5
f 120//2 119//2 118//2
f 75//3 121//3 118//3
f 20//5 119//5 120//5
f 62//6 120//6 121//6
f 122//2 123//2 124//2
f 63//4 122//4 125//4
f 64//6 124//6 123//6
f 74//5 125//5 124//5
f 129//2 128//2 127//2
f 71//4 129//4 126//4
f 68//3 128//3 129//3
f 22//6 127//6 128//6
f 133//2 132//2 131//2
f 39//5 130//5 131//5
f 81//4 133//4 130//4
f 41//3 132//3 133//3
f 134//2 135//2 136//2
f 56//6 136//6 135//6
f 26//3 135//3 134//3
f 80//5 137//5 136//5
f 138//2 139//2 140//2
f 27//3 139//3 138//3
f 59//4 138//4 141//4
f 60//6 140//6 139//6
f 143//2 142//2 145//2
f 12//4 143//4 144//4
f 70//6 145//6 142//6
f 53//5 144//5 145//5
f 146//2 149//2 148//2
f 40//6 146//6 147//6
f 42//4 148//4 149//4
f 9//3 147//3 148//3
f 153//2 152//2 151//2
f 60//5 152//5 153//5
f 46//3 150//3 151//3
f 18//4 151//4 152//4
f 155//2 156//2 157//2
f 76//6 157//6 156//6
f 51//3 156//3 155//3
f 35//5 154//5 157//5
f 160//2 159//2 158//2
f 44//4 158//4 159//4
f 16//5 159//5 160//5
f 66//6 160//6 161//6
f 165//2 164//2 163//2
f 11//3 163//3 164//3
f 36//6 162//6 163//6
f 84//5 165//5 162//5
f 166//2 169//2 168//2
f 50//4 168//4 169//4
f 13//3 167//3 168//3
f 71//5 169//5 166//5
f 170//2 173//2 172//2
f 54//6 172//6 173//6
f 57//4 170//4 171//4
f 82//3 173//3 170//3
f 177//2 175//2 174//2
f 57//4 176//4 174//4
f 17//5 174//5 175//5
f 79//3 177//3 176//3
f 178//2 181//2 180//2
f 14//3 179//3 180//3
f 30//4 180//4 181//4
f 64//6 178//6 179//6
