# Blender v2.79 (sub 0) OBJ File: ''
# www.blender.org
v 0.500000 0.000000 -0.100000
v 0.500000 0.000000 0.100000
v -0.500000 0.000000 0.100000
v -0.500000 0.000000 -0.100000
v 0.500000 0.800000 -0.100000
v 0.500000 0.800000 0.100000
v -0.500000 0.800000 0.100000
v -0.500000 0.800000 -0.100000
v 0.300000 0.800000 -0.100000
v 0.100000 0.800000 -0.100000
v -0.100000 0.800000 -0.100000
v -0.300000 0.800000 -0.100000
v 0.300000 0.800000 0.100000
v 0.100000 0.800000 0.100000
v -0.100000 0.800000 0.100000
v -0.300000 0.800000 0.100000
v 0.300000 1.000000 -0.100000
v 0.100000 1.000000 -0.100000
v -0.100000 1.000000 -0.100000
v -0.300000 1.000000 -0.100000
v 0.300000 1.000000 0.100000
v 0.100000 1.000000 0.100000
v -0.100000 1.000000 0.100000
v -0.300000 1.000000 0.100000
vn 0.0000 -1.0000 0.0000
vn 1.0000 -0.0000 0.0000
vn -1.0000 -0.0000 -0.0000
vn 0.0000 0.0000 -1.0000
vn 0.0000 -0.0000 1.0000
vn 0.0000 1.0000 0.0000
s off
f 2//1 4//1 1//1
f 5//2 2//2 1//2
f 7//3 4//3 3//3
f 10//4 9//4 1//4
f 2//5 13//5 14//5
f 12//6 7//6 16//6
f 5//6 13//6 6//6
f 14//3 18//3 10//3
f 11//6 14//6 10//6
f 16//3 20//3 12//3
f 18//6 21//6 17//6
f 20//6 23//6 19//6
f 15//5 24//5 16//5
f 13//5 22//5 14//5
f 12//4 19//4 11//4
f 10//4 17//4 9//4
f 11//2 23//2 15//2
f 9//2 21//2 13//2
f 2//1 3//1 4//1
f 5//2 6//2 2//2
f 7//3 8//3 4//3
f 1//4 4//4 11//4
f 4//4 8//4 12//4
f 12//4 11//4 4//4
f 11//4 10//4 1//4
f 9//4 5//4 1//4
f 7//5 3//5 16//5
f 3//5 2//5 15//5
f 16//5 3//5 15//5
f 2//5 6//5 13//5
f 14//5 15//5 2//5
f 12//6 8//6 7//6
f 5//6 9//6 13//6
f 14//3 22//3 18//3
f 11//6 15//6 14//6
f 16//3 24//3 20//3
f 18//6 22//6 21//6
f 20//6 24//6 23//6
f 15//5 23//5 24//5
f 13//5 21//5 22//5
f 12//4 20//4 19//4
f 10//4 18//4 17//4
f 11//2 19//2 23//2
f 9//2 17//2 21//2
